<mxfile host="Electron" agent="Mozilla/5.0 (Macintosh; Intel Mac OS X 10_15_7) AppleWebKit/537.36 (KHTML, like Gecko) draw.io/26.0.16 Chrome/132.0.6834.196 Electron/34.2.0 Safari/537.36" version="26.0.16">
  <diagram name="Page-1" id="euBkLFr2ov__EOV1Y5Rs">
    <mxGraphModel dx="2680" dy="1912" grid="1" gridSize="10" guides="1" tooltips="1" connect="1" arrows="1" fold="1" page="1" pageScale="1" pageWidth="1654" pageHeight="1169" math="0" shadow="0">
      <root>
        <mxCell id="0" />
        <mxCell id="1" parent="0" />
        <mxCell id="7TX2rSaXaKqozd_B92K4-1" value="" style="rounded=1;whiteSpace=wrap;html=1;fillColor=#f5f5f5;fontColor=#333333;strokeColor=#666666;" vertex="1" parent="1">
          <mxGeometry x="-860" y="-1010" width="830" height="430" as="geometry" />
        </mxCell>
        <mxCell id="7TX2rSaXaKqozd_B92K4-2" value="kwg-ont:S2Cell" style="ellipse;whiteSpace=wrap;html=1;fontSize=16;fontStyle=1" vertex="1" parent="1">
          <mxGeometry x="-840" y="-840" width="120" height="80" as="geometry" />
        </mxCell>
        <mxCell id="7TX2rSaXaKqozd_B92K4-3" value="" style="edgeStyle=orthogonalEdgeStyle;rounded=0;orthogonalLoop=1;jettySize=auto;html=1;" edge="1" parent="1" source="7TX2rSaXaKqozd_B92K4-5" target="7TX2rSaXaKqozd_B92K4-2">
          <mxGeometry relative="1" as="geometry" />
        </mxCell>
        <mxCell id="7TX2rSaXaKqozd_B92K4-4" value="&lt;font style=&quot;font-size: 14px;&quot;&gt;geo:coveredBy&lt;/font&gt;" style="edgeLabel;html=1;align=center;verticalAlign=middle;resizable=0;points=[];" vertex="1" connectable="0" parent="7TX2rSaXaKqozd_B92K4-3">
          <mxGeometry x="-0.0513" y="1" relative="1" as="geometry">
            <mxPoint as="offset" />
          </mxGeometry>
        </mxCell>
        <mxCell id="7TX2rSaXaKqozd_B92K4-5" value="mfd:Site" style="ellipse;whiteSpace=wrap;html=1;fontSize=16;fillColor=#DAE8FF;strokeColor=#6C8EBF;" vertex="1" parent="1">
          <mxGeometry x="-840" y="-1000" width="120" height="80" as="geometry" />
        </mxCell>
        <mxCell id="7TX2rSaXaKqozd_B92K4-6" style="edgeStyle=orthogonalEdgeStyle;rounded=0;orthogonalLoop=1;jettySize=auto;html=1;exitX=0;exitY=0.5;exitDx=0;exitDy=0;entryX=1;entryY=0.5;entryDx=0;entryDy=0;" edge="1" parent="1" source="7TX2rSaXaKqozd_B92K4-12" target="7TX2rSaXaKqozd_B92K4-2">
          <mxGeometry relative="1" as="geometry" />
        </mxCell>
        <mxCell id="7TX2rSaXaKqozd_B92K4-7" value="&lt;font style=&quot;font-size: 14px;&quot;&gt;sosa:hasFeatureOfInterest&lt;/font&gt;" style="edgeLabel;html=1;align=center;verticalAlign=middle;resizable=0;points=[];" vertex="1" connectable="0" parent="7TX2rSaXaKqozd_B92K4-6">
          <mxGeometry x="0.0171" y="-1" relative="1" as="geometry">
            <mxPoint x="1" y="-19" as="offset" />
          </mxGeometry>
        </mxCell>
        <mxCell id="7TX2rSaXaKqozd_B92K4-8" value="" style="edgeStyle=orthogonalEdgeStyle;rounded=0;orthogonalLoop=1;jettySize=auto;html=1;" edge="1" parent="1" source="7TX2rSaXaKqozd_B92K4-12" target="7TX2rSaXaKqozd_B92K4-15">
          <mxGeometry relative="1" as="geometry" />
        </mxCell>
        <mxCell id="7TX2rSaXaKqozd_B92K4-9" value="&lt;font style=&quot;font-size: 14px;&quot;&gt;sosa:hasResult&lt;/font&gt;" style="edgeLabel;html=1;align=center;verticalAlign=middle;resizable=0;points=[];" vertex="1" connectable="0" parent="7TX2rSaXaKqozd_B92K4-8">
          <mxGeometry x="-0.025" y="-1" relative="1" as="geometry">
            <mxPoint as="offset" />
          </mxGeometry>
        </mxCell>
        <mxCell id="7TX2rSaXaKqozd_B92K4-10" style="edgeStyle=orthogonalEdgeStyle;rounded=0;orthogonalLoop=1;jettySize=auto;html=1;exitX=1;exitY=0.5;exitDx=0;exitDy=0;entryX=0;entryY=0.5;entryDx=0;entryDy=0;" edge="1" parent="1" source="7TX2rSaXaKqozd_B92K4-12" target="7TX2rSaXaKqozd_B92K4-17">
          <mxGeometry relative="1" as="geometry" />
        </mxCell>
        <mxCell id="7TX2rSaXaKqozd_B92K4-11" value="&lt;font style=&quot;font-size: 14px;&quot;&gt;sosa:observedProperty&lt;/font&gt;" style="edgeLabel;html=1;align=center;verticalAlign=middle;resizable=0;points=[];" vertex="1" connectable="0" parent="7TX2rSaXaKqozd_B92K4-10">
          <mxGeometry x="-0.0228" relative="1" as="geometry">
            <mxPoint x="2" y="-20" as="offset" />
          </mxGeometry>
        </mxCell>
        <mxCell id="7TX2rSaXaKqozd_B92K4-12" value="sosa:Observation" style="ellipse;whiteSpace=wrap;html=1;fontSize=16;" vertex="1" parent="1">
          <mxGeometry x="-560" y="-840" width="160" height="80" as="geometry" />
        </mxCell>
        <mxCell id="7TX2rSaXaKqozd_B92K4-13" style="edgeStyle=orthogonalEdgeStyle;rounded=0;orthogonalLoop=1;jettySize=auto;html=1;exitX=0;exitY=0.5;exitDx=0;exitDy=0;entryX=1;entryY=0.5;entryDx=0;entryDy=0;" edge="1" parent="1" source="7TX2rSaXaKqozd_B92K4-15" target="7TX2rSaXaKqozd_B92K4-16">
          <mxGeometry relative="1" as="geometry" />
        </mxCell>
        <mxCell id="7TX2rSaXaKqozd_B92K4-14" value="&lt;font style=&quot;font-size: 14px;&quot;&gt;qudt:numericalValue&lt;/font&gt;" style="edgeLabel;html=1;align=center;verticalAlign=middle;resizable=0;points=[];" vertex="1" connectable="0" parent="7TX2rSaXaKqozd_B92K4-13">
          <mxGeometry x="0.0039" y="-1" relative="1" as="geometry">
            <mxPoint as="offset" />
          </mxGeometry>
        </mxCell>
        <mxCell id="7TX2rSaXaKqozd_B92K4-15" value="sosa:QuantityValue" style="ellipse;whiteSpace=wrap;html=1;fontSize=16;" vertex="1" parent="1">
          <mxGeometry x="-560" y="-680" width="160" height="80" as="geometry" />
        </mxCell>
        <mxCell id="7TX2rSaXaKqozd_B92K4-16" value="&lt;font style=&quot;font-size: 16px;&quot;&gt;Literal&lt;/font&gt;" style="rounded=0;whiteSpace=wrap;html=1;" vertex="1" parent="1">
          <mxGeometry x="-840" y="-670" width="120" height="60" as="geometry" />
        </mxCell>
        <mxCell id="7TX2rSaXaKqozd_B92K4-17" value="sosa:ObservableProperty" style="ellipse;whiteSpace=wrap;html=1;fontSize=16;" vertex="1" parent="1">
          <mxGeometry x="-240" y="-840" width="200" height="80" as="geometry" />
        </mxCell>
        <mxCell id="7TX2rSaXaKqozd_B92K4-18" value="time:TemporalEntity" style="ellipse;whiteSpace=wrap;html=1;fontSize=16;" vertex="1" parent="1">
          <mxGeometry x="-220" y="-680" width="160" height="80" as="geometry" />
        </mxCell>
        <mxCell id="7TX2rSaXaKqozd_B92K4-19" value="" style="endArrow=classic;html=1;rounded=0;exitX=1;exitY=1;exitDx=0;exitDy=0;" edge="1" parent="1" source="7TX2rSaXaKqozd_B92K4-12" target="7TX2rSaXaKqozd_B92K4-18">
          <mxGeometry width="50" height="50" relative="1" as="geometry">
            <mxPoint x="-540" y="-790" as="sourcePoint" />
            <mxPoint x="-490" y="-840" as="targetPoint" />
          </mxGeometry>
        </mxCell>
        <mxCell id="7TX2rSaXaKqozd_B92K4-20" value="&lt;font style=&quot;font-size: 14px;&quot;&gt;sosa:phenomenonTime&lt;/font&gt;" style="edgeLabel;html=1;align=center;verticalAlign=middle;resizable=0;points=[];" vertex="1" connectable="0" parent="7TX2rSaXaKqozd_B92K4-19">
          <mxGeometry x="-0.003" relative="1" as="geometry">
            <mxPoint as="offset" />
          </mxGeometry>
        </mxCell>
        <mxCell id="7TX2rSaXaKqozd_B92K4-21" value="Data Graph" style="text;html=1;align=center;verticalAlign=top;whiteSpace=wrap;rounded=0;fontSize=20;fontStyle=5" vertex="1" parent="1">
          <mxGeometry x="-573.5" y="-992.5" width="187" height="65" as="geometry" />
        </mxCell>
      </root>
    </mxGraphModel>
  </diagram>
</mxfile>
